<svg width="24" height="24" fill="none" xmlns="http://www.w3.org/2000/svg"><path d="m19.4 13-.6-.1c-.5-.1-1-.2-1.3-.4a2 2 0 0 0-2.5 1l-.2.4A12.2 12.2 0 0 1 10 9.3l.4-.3a2 2 0 0 0 1-2.5 10.3 10.3 0 0 1-.5-2A3 3 0 0 0 8 2H5a3 3 0 0 0-3 3.4A19 19 0 0 0 18.5 22h.4a3 3 0 0 0 3-3v-3a3 3 0 0 0-2.5-2.9Zm.5 6a1 1 0 0 1-.7 1 1 1 0 0 1-.4 0A17 17 0 0 1 4 5.2a1 1 0 0 1 .2-.8 1 1 0 0 1 .8-.3h3a1 1 0 0 1 1 .7 10.8 10.8 0 0 0 .6 2.4L8.3 8a1 1 0 0 0-.5 1.3c1.4 3 4 5.6 7 7h.8a1 1 0 0 0 .5-.5l.6-1.4a13.7 13.7 0 0 0 2.4.6 1 1 0 0 1 .8 1V19Z" fill="#333"/></svg>