<svg width="24" height="24" fill="none" xmlns="http://www.w3.org/2000/svg"><path d="M23 4a1 1 0 0 0-1.5-1c-.6.4-1.2.7-1.9.9-1-.8-2.1-1.3-3.4-1.3A5.2 5.2 0 0 0 11 7.7a11 11 0 0 1-6.8-4 1 1 0 0 0-1.3-.1 1 1 0 0 0-.3.3 5.3 5.3 0 0 0-.3 4.8 1 1 0 0 0-.5.9v.4c.1 1.3.7 2.5 1.6 3.3a1 1 0 0 0 0 .8 5.2 5.2 0 0 0 2.3 3c-1.1.4-2.4.5-3.6.4a1 1 0 0 0-.6 1.8 13 13 0 0 0 20-11v-.1A5.8 5.8 0 0 0 23 4Zm-3.3 3.2a1 1 0 0 0-.2.7v.5c0 1-.2 2-.5 3a10.7 10.7 0 0 1-10.5 8 11 11 0 0 1-2.6-.3c1-.4 2-1 3-1.6a1 1 0 0 0-.7-1.8c-.8 0-1.6-.3-2.2-1h.5a1 1 0 0 0-.1-2A3.2 3.2 0 0 1 4.2 11h.5a1 1 0 0 0 1-.6 1 1 0 0 0-.4-1.2 3.2 3.2 0 0 1-1.4-2.9A13 13 0 0 0 12 9.8a1 1 0 0 0 .8-.3 1 1 0 0 0 .2-.9v-.7a3.2 3.2 0 0 1 5.5-2.2 1 1 0 0 0 .9.3l1.2-.4-1 1.6Z" fill="#333"/></svg>