<svg width="24" height="24" fill="none" xmlns="http://www.w3.org/2000/svg"><path d="M17.3 5.5a1.2 1.2 0 1 0 0 2.4 1.2 1.2 0 0 0 0-2.4ZM22 7.9c0-.8-.1-1.7-.4-2.5a5 5 0 0 0-1.2-1.7c-.5-.5-1-1-1.8-1.2-.7-.3-1.5-.4-2.4-.4L12 2H7.9c-.9 0-1.7.2-2.5.5-.6.3-1.2.7-1.7 1.2s-1 1-1.2 1.8c-.3.7-.4 1.5-.4 2.4L2 12v4.1c0 .9.2 1.7.5 2.4s.7 1.3 1.2 1.8 1 1 1.8 1.2c.7.3 1.5.4 2.4.4l4.1.1h4.1c.9 0 1.7-.2 2.4-.5s1.3-.7 1.8-1.2 1-1 1.2-1.8c.3-.7.4-1.6.4-2.4L22 12V7.9ZM20.1 16c0 .6 0 1.3-.3 1.9A3 3 0 0 1 19 19l-1.1.8a65 65 0 0 1-5.9.4L8 20c-.6 0-1.3 0-1.9-.3-.4-.2-.8-.4-1.1-.8a3 3 0 0 1-.7-1.1c-.3-.6-.4-1.2-.4-1.9l-.1-4V8c0-.6.2-1.3.4-1.9L5 5l1.1-.8c.6-.2 1.3-.3 1.9-.3l4-.1a57.3 57.3 0 0 1 5.9.4c.4.2.8.4 1.2.8l.7 1.1a65 65 0 0 1 .3 9.9ZM12 6.9A5.1 5.1 0 1 0 12 17 5.1 5.1 0 0 0 12 7Zm0 8.4a3.3 3.3 0 1 1 0-6.6 3.3 3.3 0 0 1 0 6.6Z" fill="#333"/></svg>