<svg width="24" height="24" fill="none" xmlns="http://www.w3.org/2000/svg"><path d="M17.5 9c-.9 0-1.8.2-2.6.6A1 1 0 0 0 14 9h-4a1 1 0 0 0-1 1v12a1 1 0 0 0 1 1h4a1 1 0 0 0 1-1v-5.5a1 1 0 1 1 2 0V22a1 1 0 0 0 1 1h4a1 1 0 0 0 1-1v-7.5A5.5 5.5 0 0 0 17.5 9ZM21 21h-2v-4.5a3 3 0 0 0-6 0V21h-2V11h2v.7a1 1 0 0 0 1.8.6 3.5 3.5 0 0 1 6.2 2.2V21ZM7 9H3a1 1 0 0 0-1 1v12a1 1 0 0 0 1 1h4a1 1 0 0 0 1-1V10a1 1 0 0 0-1-1ZM6 21H4V11h2v10ZM5 1.5A3.2 3.2 0 1 0 5 8a3.2 3.2 0 1 0 0-6.5ZM5 6a1.2 1.2 0 0 1-1.4-1.2C3.6 4 4 3.5 5 3.5a1.2 1.2 0 0 1 1.4 1.3C6.4 5.5 6 6 5 6Z" fill="#333"/></svg>