<svg width="24" height="24" fill="none" xmlns="http://www.w3.org/2000/svg"><path d="M9 12H7a1 1 0 0 0 0 2h2a1 1 0 1 0 0-2Zm-1-2h4a1 1 0 1 0 0-2H8a1 1 0 1 0 0 2Zm1 6H7a1 1 0 0 0 0 2h2a1 1 0 1 0 0-2Zm12-4h-3V3a1 1 0 0 0-1.5-.9l-3 1.7-3-1.7a1 1 0 0 0-1 0l-3 1.7-3-1.7A1 1 0 0 0 2 3v16a3 3 0 0 0 3 3h14a3 3 0 0 0 3-3v-6a1 1 0 0 0-1-1ZM5 20a1 1 0 0 1-1-1V4.7L6 6a1 1 0 0 0 1 0L10 4 13 6a1 1 0 0 0 1 0l2-1.2V19c0 .3 0 .7.2 1H5Zm15-1a1 1 0 1 1-2 0v-5h2v5Zm-6.4-2.8-.2-.1h-.2a1 1 0 0 0-1 .2 1 1 0 0 0-.1 1l.2.4.3.2a1 1 0 0 0 .8 0l.3-.2a1 1 0 0 0 .3-.7 1 1 0 0 0-.3-.7l-.1-.1Zm.1-4a1 1 0 0 0-1.7.9 1 1 0 0 0 1.7.6 1 1 0 0 0 0-1.4Z" fill="#333"/></svg>