<svg width="24" height="24" fill="none" xmlns="http://www.w3.org/2000/svg"><path d="M3.7 16.3a1 1 0 0 0-.3-.2 1 1 0 0 0-.8 0 1 1 0 0 0-.3.2l-.2.3a1 1 0 0 0 .2 1.1l.3.2a1 1 0 0 0 .8 0l.3-.2a1 1 0 0 0 .2-1 1 1 0 0 0-.2-.4ZM7 8h14a1 1 0 1 0 0-2H7a1 1 0 0 0 0 2Zm-3.3 3.3a1 1 0 0 0-1-.2l-.4.2-.2.3a1 1 0 0 0 0 .8l.2.3.3.2a1 1 0 0 0 .8 0l.3-.2.2-.3a1 1 0 0 0 0-.8 1 1 0 0 0-.2-.3ZM21 11H7a1 1 0 0 0 0 2h14a1 1 0 0 0 0-2ZM3.7 6.3a1 1 0 0 0-.3-.2 1 1 0 0 0-1.1.2l-.2.3a1 1 0 0 0 0 .8l.2.3.3.2a1 1 0 0 0 1.1-.2l.2-.3a1 1 0 0 0 0-.8l-.2-.3ZM21 16H7a1 1 0 0 0 0 2h14a1 1 0 0 0 0-2Z" fill="#333"/></svg>