<svg width="24" height="24" fill="none" xmlns="http://www.w3.org/2000/svg"><path d="M19.9 12.7a1 1 0 0 1 0-1.4l1.3-1.4a1 1 0 0 0 .1-1.2l-2-3.4a1 1 0 0 0-1-.5l-2 .4a1 1 0 0 1-1.1-.7l-.6-1.8a1 1 0 0 0-1-.7h-4a1 1 0 0 0-1 .7l-.5 1.8a1 1 0 0 1-1.2.7L5 4.8a1 1 0 0 0-1 .5L2 8.7a1 1 0 0 0 .1 1.2l1.3 1.4a1 1 0 0 1 0 1.4L2 14a1 1 0 0 0-.1 1.2l2 3.4a1 1 0 0 0 1 .5l2-.4a1 1 0 0 1 1.1.7l.6 1.8a1 1 0 0 0 1 .7h4a1 1 0 0 0 1-.7l.6-1.8a1 1 0 0 1 1.1-.7l1.9.4a1 1 0 0 0 1-.5l2-3.4a1 1 0 0 0 0-1.2l-1.4-1.4ZM18.4 14l.8.9-1.3 2.2-1.1-.2a3 3 0 0 0-3.5 2l-.4 1.1h-2.5l-.4-1.1a3 3 0 0 0-3.4-2l-1.2.2L4 14.9l.8-1a3 3 0 0 0 0-4L4 9.2l1.3-2.2 1.1.2a3 3 0 0 0 3.5-2l.4-1.1h2.5l.4 1.1a3 3 0 0 0 3.4 2L18 7l1.3 2.2-.8 1a3 3 0 0 0 0 3.9Zm-6.8-6a4 4 0 1 0 0 8 4 4 0 0 0 0-8Zm0 6a2 2 0 1 1 0-4 2 2 0 0 1 0 4Z" fill="#333"/></svg>