<svg width="24" height="24" fill="none" xmlns="http://www.w3.org/2000/svg"><path d="m20.4 7.1-.5-.5a4.7 4.7 0 0 0-1.2-3.8c-1-1.2-3-1.8-5.5-1.8H7a1.9 1.9 0 0 0-1.9 1.6L2.5 19a1.5 1.5 0 0 0 1.6 1.8h2.6v.5A1.5 1.5 0 0 0 8 23h3.2a1.8 1.8 0 0 0 1.8-1.5l.6-4h.3c4 0 6.6-2 7.3-5.8a5.1 5.1 0 0 0-.9-4.6ZM7.8 13.7l-.7 4.5v.6H4.5L7.1 3h6.1c2 0 3.3.4 4 1.2a3 3 0 0 1 .6 2.7v.4c-.2 1.4-1 2.7-2 3.6a6.7 6.7 0 0 1-4.3 1.2H9.7a1.9 1.9 0 0 0-1.9 1.6Zm11.6-2.4c-.6 2.8-2.3 4.1-5.4 4.1h-.5a1.8 1.8 0 0 0-1.7 1.5l-.7 4-2.4.1.5-3 .6-3.9H13l.6-.2c.3 0 .6 0 .8-.2l.6-.1a7.7 7.7 0 0 0 1.8-1 6.6 6.6 0 0 0 1-.8l.2-.4.5-.7.3-.3.5-1.2c.2.6.2 1.4 0 2.1Z" fill="#333"/></svg>