<svg width="40" height="40" viewBox="0 0 40 40" fill="none" xmlns="http://www.w3.org/2000/svg">
<path d="M31.6665 11.6666H26.6665V9.99992C26.6665 8.23181 25.9641 6.53612 24.7139 5.28587C23.4636 4.03563 21.7679 3.33325 19.9998 3.33325C18.2317 3.33325 16.536 4.03563 15.2858 5.28587C14.0355 6.53612 13.3332 8.23181 13.3332 9.99992V11.6666H8.33317C7.89114 11.6666 7.46722 11.8422 7.15466 12.1547C6.8421 12.4673 6.6665 12.8912 6.6665 13.3333V31.6666C6.6665 32.9927 7.19329 34.2644 8.13097 35.2021C9.06865 36.1398 10.3404 36.6666 11.6665 36.6666H28.3332C29.6593 36.6666 30.931 36.1398 31.8687 35.2021C32.8064 34.2644 33.3332 32.9927 33.3332 31.6666V13.3333C33.3332 12.8912 33.1576 12.4673 32.845 12.1547C32.5325 11.8422 32.1085 11.6666 31.6665 11.6666ZM16.6665 9.99992C16.6665 9.11586 17.0177 8.26802 17.6428 7.6429C18.2679 7.01777 19.1158 6.66659 19.9998 6.66659C20.8839 6.66659 21.7317 7.01777 22.3569 7.6429C22.982 8.26802 23.3332 9.11586 23.3332 9.99992V11.6666H16.6665V9.99992ZM29.9998 31.6666C29.9998 32.1086 29.8242 32.5325 29.5117 32.8451C29.1991 33.1577 28.7752 33.3333 28.3332 33.3333H11.6665C11.2245 33.3333 10.8006 33.1577 10.488 32.8451C10.1754 32.5325 9.99984 32.1086 9.99984 31.6666V14.9999H13.3332V16.6666C13.3332 17.1086 13.5088 17.5325 13.8213 17.8451C14.1339 18.1577 14.5578 18.3333 14.9998 18.3333C15.4419 18.3333 15.8658 18.1577 16.1783 17.8451C16.4909 17.5325 16.6665 17.1086 16.6665 16.6666V14.9999H23.3332V16.6666C23.3332 17.1086 23.5088 17.5325 23.8213 17.8451C24.1339 18.1577 24.5578 18.3333 24.9998 18.3333C25.4419 18.3333 25.8658 18.1577 26.1783 17.8451C26.4909 17.5325 26.6665 17.1086 26.6665 16.6666V14.9999H29.9998V31.6666Z" fill="#333333"/>
</svg>
