<svg width="40" height="40" viewBox="0 0 40 40" fill="none" xmlns="http://www.w3.org/2000/svg">
<path d="M36.1832 33.8165L29.9998 27.6832C32.4 24.6905 33.5623 20.892 33.2479 17.0687C32.9334 13.2453 31.166 9.68781 28.309 7.12758C25.4521 4.56735 21.7229 3.19902 17.888 3.30396C14.0532 3.40889 10.4044 4.97911 7.69174 7.69174C4.97911 10.4044 3.40889 14.0532 3.30396 17.888C3.19902 21.7229 4.56735 25.4521 7.12758 28.309C9.68781 31.166 13.2453 32.9334 17.0687 33.2479C20.892 33.5623 24.6905 32.4 27.6832 29.9998L33.8165 36.1332C33.9714 36.2894 34.1558 36.4134 34.3589 36.498C34.562 36.5826 34.7798 36.6262 34.9998 36.6262C35.2199 36.6262 35.4377 36.5826 35.6408 36.498C35.8439 36.4134 36.0282 36.2894 36.1832 36.1332C36.4836 35.8224 36.6515 35.4071 36.6515 34.9748C36.6515 34.5426 36.4836 34.1273 36.1832 33.8165ZM18.3332 29.9998C16.0257 29.9998 13.7701 29.3156 11.8515 28.0337C9.93295 26.7517 8.4376 24.9296 7.55458 22.7978C6.67156 20.666 6.44052 18.3202 6.89068 16.0571C7.34084 13.794 8.45198 11.7152 10.0836 10.0836C11.7152 8.45198 13.794 7.34084 16.0571 6.89068C18.3202 6.44052 20.666 6.67156 22.7978 7.55458C24.9296 8.4376 26.7517 9.93295 28.0337 11.8515C29.3156 13.7701 29.9998 16.0257 29.9998 18.3332C29.9998 21.4274 28.7707 24.3948 26.5828 26.5828C24.3948 28.7707 21.4274 29.9998 18.3332 29.9998Z" fill="#333333"/>
</svg>
