<svg width="40" height="40" viewBox="0 0 40 40" fill="none" xmlns="http://www.w3.org/2000/svg">
<path d="M26.1833 21.1831C27.8173 19.8976 29.01 18.1347 29.5954 16.1397C30.1808 14.1447 30.1299 12.0169 29.4496 10.0522C28.7694 8.08758 27.4938 6.38379 25.8001 5.17789C24.1065 3.972 22.0791 3.32397 20 3.32397C17.9209 3.32397 15.8935 3.972 14.1999 5.17789C12.5062 6.38379 11.2306 8.08758 10.5503 10.0522C9.87013 12.0169 9.81918 14.1447 10.4046 16.1397C10.99 18.1347 12.1827 19.8976 13.8167 21.1831C11.0168 22.3049 8.57381 24.1654 6.74815 26.5663C4.92249 28.9673 3.7826 31.8186 3.44999 34.8165C3.42592 35.0353 3.44519 35.2568 3.5067 35.4682C3.56822 35.6797 3.67077 35.8769 3.80851 36.0487C4.08669 36.3956 4.4913 36.6178 4.93333 36.6665C5.37536 36.7151 5.81859 36.5861 6.16554 36.3079C6.51248 36.0298 6.73471 35.6252 6.78333 35.1831C7.1493 31.9251 8.70281 28.9162 11.147 26.7311C13.5912 24.5461 16.7548 23.3382 20.0333 23.3382C23.3118 23.3382 26.4754 24.5461 28.9196 26.7311C31.3638 28.9162 32.9174 31.9251 33.2833 35.1831C33.3286 35.5927 33.5241 35.9709 33.8318 36.2448C34.1396 36.5188 34.538 36.669 34.95 36.6665H35.1333C35.5702 36.6162 35.9695 36.3953 36.2443 36.0519C36.519 35.7085 36.6469 35.2704 36.6 34.8331C36.2658 31.8268 35.1198 28.9681 33.2847 26.5635C31.4497 24.1588 28.9949 22.2989 26.1833 21.1831ZM20 19.9998C18.6815 19.9998 17.3925 19.6088 16.2962 18.8763C15.1999 18.1437 14.3454 17.1025 13.8408 15.8844C13.3362 14.6662 13.2042 13.3257 13.4614 12.0325C13.7187 10.7393 14.3536 9.55144 15.2859 8.61909C16.2183 7.68674 17.4062 7.0518 18.6994 6.79457C19.9926 6.53733 21.333 6.66935 22.5512 7.17394C23.7694 7.67852 24.8106 8.53301 25.5431 9.62933C26.2757 10.7257 26.6667 12.0146 26.6667 13.3331C26.6667 15.1012 25.9643 16.7969 24.714 18.0472C23.4638 19.2974 21.7681 19.9998 20 19.9998Z" fill="#333333"/>
</svg>
